# xmcd
#
# Track frame offsets: 
#        150
#        28345
#        43353
#        62078
#        80378
#        106453
#        128898
#        160003
#        170738
#        209203
#        231403
#        250840
#        273678
#        306933
#        330920
#
# Disc length: 4541 seconds
#
# Revision: 2
# Processed by: cddbd v1.5.2PL0 Copyright (c) Steve Scherf et al.
# Submitted via: ExactAudioCopy v1.0b1
#
DISCID=e311bb0f
DTITLE=喜納昌吉 - THE CELEBRATIONS
DYEAR=1995
DGENRE=National Folk
TTITLE0=COSMIC DANCE
TTITLE1=ARU NAIKO
TTITLE2=ニライカナイ(遥かなる国)
TTITLE3=風
TTITLE4=サバニ(丸木舟)
TTITLE5=ゾルバでブッダ
TTITLE6=〜ハイサイおじさん
TTITLE7=アルタイコ
TTITLE8=クサムニグンダ
TTITLE9=セレブレーション(祭)
TTITLE10=DOOR
TTITLE11=イヤホイ
TTITLE12=アイヌ・プリ
TTITLE13=花
TTITLE14=アンコール〜アイヌ・プリ
EXTD=YEAR: 1995
EXTT0=
EXTT1=
EXTT2=
EXTT3=
EXTT4=
EXTT5=
EXTT6=
EXTT7=
EXTT8=
EXTT9=
EXTT10=
EXTT11=
EXTT12=
EXTT13=
EXTT14=
PLAYORDER=
